# xmcd
#
# Track frame offsets:
#	150
#	18534
#	39517
#	52702
#	65244
#	82022
#	98686
#	120698
#	137742
#	156519
#	171273
#
# Disc length: 2500 seconds
#
# Revision: 1
# Processed by: cddbd v1.5.2PL0 Copyright (c) Steve Scherf et al.
# Submitted via: audiograbber 1.83.01
#
DISCID=9409c20b
DTITLE=Claude Lefebvre - Entrez dans ma demeure
DYEAR=1900
DGENRE=Country Religieux
TTITLE0=Claude Lefebvre - Entrez dans ma demeure
TTITLE1=Claude Lefebvre - Seigneur qui es-tu?
TTITLE2=Claude Lefebvre - Gloire à Dieu
TTITLE3=Claude Lefebvre - Toi le Fils de Dieu
TTITLE4=Claude Lefebvre - L'enfant des nuages
TTITLE5=Claude Lefebvre - Tu as fais el monde
TTITLE6=Claude Lefebvre - De l'autre côté des nuages
TTITLE7=Claude Lefebvre - Je cherche mon chemin
TTITLE8=Claude Lefebvre - Les Étoiles
TTITLE9=Claude Lefebvre - Pense un peu à moi
TTITLE10=Claude Lefebvre - L'Amour d'un père
EXTD=
EXTT0=
EXTT1=
EXTT2=
EXTT3=
EXTT4=
EXTT5=
EXTT6=
EXTT7=
EXTT8=
EXTT9=
EXTT10=
PLAYORDER=
